<svg xmlns="http://www.w3.org/2000/svg"  viewBox="0 0 479.995 479.995" width="240px" height="240px"><path fill="#ffa4b8" d="M239.998,374.56l-0.01-0.01c0-0.01,0.01-0.01,0.01-0.02c-4.64-8.78-65.7-144.8-212.22-85.2	c-14.36,5.85-19.78,23.45-11.19,36.36c11.11,16.69,22.86,30.01,34.91,40.53c-27.85,7.89-45.6,33.8-43.3,61.55	c0.96,11.6,13.29,18.52,23.71,13.35c33.99-16.84,60.03-2.51,80.35,2.14c56.68,12.99,113.71,4.53,125.52-46.29	c0.52-2.22,0.95-4.51,1.28-6.89c0.01-0.04,0.01-0.08,0.02-0.12c0.066-0.492,0.126-0.978,0.181-1.458	c0.455-3.631,0.712-7.438,0.739-11.452c-0.02-1.44-0.02-2.01,0-2.25v-0.09c0-0.02,0-0.04,0.01-0.05c0-0.02,0.01-0.03,0.02-0.06	c0-0.01,0.01-0.01,0.01-0.02C240.018,374.569,240.008,374.56,239.998,374.56z"/><path fill="#ffa4b8" d="M471.798,427.769c-0.96,11.6-13.29,18.52-23.71,13.35c-33.99-16.84-60.03-2.51-80.35,2.14	c-63.41,14.53-127.25,2.22-127.74-66.21c0.033-2.642-0.044-2.302,0.04-2.47c-0.02-0.01-0.03-0.02-0.04-0.02l0.01-0.01	c0-0.01-0.01-0.01-0.01-0.02c4.64-8.78,65.7-144.8,212.22-85.2c14.36,5.85,19.78,23.45,11.19,36.36	c-11.11,16.69-22.86,30.01-34.91,40.53C456.348,374.109,474.098,400.019,471.798,427.769z"/><path fill="#befa91" d="M428.498,366.219c27.85,7.89,45.6,33.8,43.3,61.55c-0.96,11.6-13.29,18.52-23.71,13.35	c-33.99-16.84-60.03-2.51-80.35,2.14c-63.41,14.53-127.928,2.222-127.74-66.21c0.007-2.683-0.02-2.351,0.04-2.47	C248.598,379.129,345.858,438.329,428.498,366.219z"/><path fill="#befa91" d="M51.498,366.219c82.76,72.22,180.18,12.74,188.5,8.34c0.01,0,0.02,0.01,0.04,0.02	c-0.058,0.116-0.047-0.169-0.04,2.47c0.188,68.432-64.33,80.74-127.74,66.21c-20.32-4.65-46.36-18.98-80.35-2.14	c-10.42,5.17-22.75-1.75-23.71-13.35C5.898,400.019,23.648,374.109,51.498,366.219z"/><path fill="#ffbfcb" d="M235.228,365.299c-32.29-36.09-89.98-73-179.74-36.49c-1.979,0.805-3.787,1.834-5.413,3.042	c-10.569,7.856-25.473,5.765-32.82-5.164c-0.223-0.331-0.445-0.664-0.667-0.997c-8.59-12.91-3.17-30.51,11.19-36.36	C155.168,237.509,217.948,333.56,235.228,365.299z"/><path fill="#ffa4b8" d="M239.998,374.549c-12.85-2.2-214.54-23.33-193.03-240.71c1.49-14.99,15.86-25.15,30.48-21.55	c108.49,26.72,149.07,91.39,162.55,149.92C252.768,317.699,241.178,367.679,239.998,374.549z"/><path fill="#ffbfcb" d="M193.698,174.638c11.866,12.406-3.013,31.792-18.056,23.52	c-21.875-12.028-50.044-10.573-70.207,3.701c-24.832,17.579-59.398-0.365-60.013-30.784c-0.237-11.724,0.248-24.123,1.545-37.237	c1.49-14.99,15.86-25.15,30.48-21.55C131.23,125.537,168.324,148.11,193.698,174.638z"/><path fill="#ffa4b8" d="M221.538,39.599c9.78-11.13,27.15-11.12,36.93,0.01c157.02,178.77-7.48,323.95-18.47,334.94	C229.988,364.549,63.948,218.989,221.538,39.599z"/><path fill="#ffbfcb" d="M261.523,43.131c9.452,11.033,8.166,27.623-2.74,37.221c-0.784,0.69-1.535,1.439-2.245,2.247	c-35.942,40.915-55.05,80.07-63.012,116.258c-5.176,23.523-39.936,19.717-39.551-4.366c0.741-46.282,18.411-98.941,67.563-154.892	c9.78-11.13,27.15-11.12,36.93,0.01C259.5,40.785,260.518,41.959,261.523,43.131z"/><path fill="#ffa4b8" d="M239.998,374.549c-1.18-6.87-12.77-56.85,0-112.34c13.48-58.53,54.06-123.2,162.55-149.92	c14.62-3.6,28.99,6.56,30.48,21.55C454.538,351.219,252.848,372.349,239.998,374.549z"/><path fill="#ff8ca5" d="M239.998,374.549c-3.115-0.536-17.362-2.183-36.835-7.483c-3.181-0.866-6.028-2.682-8.145-5.209	c-49.098-58.608-75.675-130.75-61.047-205.793c2.165-11.107,14.881-16.444,24.408-10.337c0.756,0.485,1.506,0.972,2.249,1.462	C126.798,274.139,232.088,366.649,239.998,374.549z"/><path fill="#ff8ca5" d="M281.608,365.729c-21.9,6.37-38.24,8.25-41.61,8.82c8.67-8.67,112.98-100.94,79.35-227.34v-0.01	c0.742-0.489,1.49-0.975,2.244-1.459c9.551-6.123,22.265-0.733,24.422,10.406C369.565,277.734,281.608,363.204,281.608,365.729z"/><path fill="#ff8ca5" d="M417.451,302.932c-32.211,44.193-80.706,72.823-134.571,87.345c-3.396,0.916-6.999,0.754-10.3-0.463	c-20.772-7.664-31.911-15.254-32.583-15.254c0.826-0.825,112.667-9.463,166.4-98.31C419.37,278.279,424.743,292.927,417.451,302.932	z"/><path fill="#ff8ca5" d="M62.565,302.932c32.211,44.193,80.705,72.823,134.571,87.345c3.396,0.916,6.999,0.754,10.3-0.463	c20.772-7.664,31.911-15.254,32.583-15.254c-0.828-0.828-112.665-9.458-166.4-98.31C60.646,278.279,55.273,292.927,62.565,302.932z"/><path fill="#9ceb63" d="M433.464,393.091c-52.749,39.415-118.979,42.09-182.861,13.657	c-4.441-1.977-7.606-6.011-8.633-10.763c-1.552-7.18-1.884-14.238-1.973-21.326c0.172-0.345,9.566,5.934,26.76,12.89	c36.31,14.71,102.75,30.15,161.74-21.33C440.977,369.752,443.403,385.664,433.464,393.091z"/><path fill="#9ceb63" d="M240.038,374.579c0,0.01-0.01,0.01-0.01,0.02s-0.01,0.03-0.01,0.05c0,0,0,0,0,0.01	c-0.01,0.03-0.01,0.06-0.02,0.1v0.04c-0.13,1.3,0.09,7.59-0.92,15.16c-0.01,0.04-0.01,0.08-0.02,0.12	c-0.26,1.91-0.59,3.91-1.03,5.92c-0.07,0.33-0.15,0.65-0.25,0.97c-1.23,4.33-4.28,7.95-8.41,9.79	c-63.06,28.05-129.47,26.21-182.79-13.63c-9.94-7.43-7.63-23.36,4.92-26.91c13.1,11.46,28.11,20.79,44.16,26.79	c19.78,7.48,34.99,8.98,53.83,8.68c34.33-0.55,60.1-11.03,90.51-27.13C240.008,374.56,240.018,374.569,240.038,374.579z"/><path d="M443.143,363.426c9.579-9.648,18.604-20.804,26.926-33.305c11.399-17.132,4.201-40.447-14.837-48.202 c-12.321-5.012-24.515-8.844-36.391-11.454c17.945-34.197,27.974-78.94,22.188-137.413c-1.925-19.503-20.802-33.354-40.394-28.53 c-17.952,4.421-34.806,10.063-50.093,16.768c-4.046,1.775-5.888,6.494-4.113,10.54c1.774,4.046,6.493,5.887,10.54,4.113 c14.45-6.338,30.429-11.682,47.492-15.885c9.885-2.435,19.599,4.434,20.607,14.573c9.088,90.121-21.147,164.341-99.823,205.213 c-3.921,2.037-5.448,6.866-3.411,10.787c2.043,3.933,6.879,5.442,10.787,3.411c27.191-14.125,56.267-35.849,77.701-68.994 c12.564,2.375,25.617,6.296,38.878,11.69c9.68,3.943,13.334,15.824,7.549,24.518c-10.205,15.33-21.482,28.43-33.516,38.936 c-49.396,43.107-111.979,41.39-169.834,12.419c56.638-56.971,92.247-132.34,77.074-212.524 c-8.101-42.81-30.305-85.119-65.997-125.754c-12.964-14.759-36.003-14.748-48.946-0.016 c-28.645,32.607-48.657,66.371-59.602,100.512c-21.999-13.018-47.7-23.197-76.569-30.307c-19.338-4.763-38.383,8.699-40.354,28.53 C26.197,262.501,90.89,324.677,147.416,354.042c3.92,2.036,8.75,0.51,10.787-3.411c2.037-3.921,0.51-8.75-3.411-10.787 c-52.141-27.086-111.791-84.677-99.863-205.213c1.007-10.132,10.713-17.01,20.606-14.574c31.115,7.663,58.223,19.013,80.571,33.735 c4.863,3.204,10.891,0.586,12.257-4.539c9.392-35.245,29.306-70.362,59.188-104.378c6.581-7.492,18.316-7.487,24.904,0.014 c128.735,146.565,37.449,269.122-12.476,318.519c-30.274-29.828-76.759-87.727-78.002-162.831 c-0.073-4.417-3.698-7.933-8.131-7.867c-4.417,0.073-7.939,3.714-7.867,8.131c1.382,83.483,54.096,146.516,85.999,177.099 c-0.353,20.737-7.099,36.575-20.104,47.086c-20.129,16.267-55.786,20.072-97.831,10.438c-19.181-4.396-48.632-19.874-85.688-1.511 c-5.361,2.657-11.689-0.859-12.186-6.844c-1.888-22.74,12.042-43.926,33.548-51.893c13.4,11.096,27.797,19.551,43.11,25.275 c20.238,7.653,36.036,9.525,56.788,9.196c15.85-0.254,30.814-2.572,45.747-7.085c4.229-1.278,6.622-5.743,5.343-9.972 c-1.278-4.229-5.744-6.622-9.972-5.344c-13.494,4.078-27.027,6.173-41.373,6.403c-17.347,0.275-31.911-0.993-50.901-8.174 c-31.69-11.847-56.387-35.98-75.211-64.258c-5.791-8.704-2.122-20.58,7.548-24.52c4.092-1.667,6.058-6.335,4.391-10.427 c-1.667-4.092-6.334-6.058-10.427-4.391c-19.062,7.765-26.214,31.095-14.832,48.202c8.365,12.566,17.352,23.674,26.917,33.31 C12.89,375.664-2.037,401.187,0.226,428.434c1.427,17.192,19.743,27.533,35.235,19.857c30.84-15.283,54.311-1.971,75.01,2.771 c36.708,8.411,82.166,10.086,111.461-13.59c14.777-11.943,23.305-28.715,25.489-49.937 c61.607,30.736,128.694,32.482,182.835-12.326c21.516,7.959,35.456,29.153,33.567,51.902c-0.493,5.939-6.786,9.519-12.186,6.844 c-30.339-15.034-55.535-7.379-73.932-1.791c-31.306,9.51-74.736,14.144-102.884-2.498c-3.803-2.248-8.709-0.989-10.958,2.815 c-2.249,3.803-0.989,8.709,2.815,10.958c29.214,17.272,69.817,15.19,102.844,7.622c20.72-4.747,44.177-18.05,75.01-2.771 c15.523,7.691,33.811-2.693,35.235-19.856C482.032,401.183,467.102,375.655,443.143,363.426z"/></svg>